PathFileType	4	(X/Y/Z)	RBDS020static.trc
DataRate	CameraRate	NumFrames	NumMarkers	Units	OrigDataRate	OrigDataStartFrame	OrigNumFrames
150.000000	150.000000	4	48	mm	150.000000	112	150
Frame#	Time	L.Ankle			L.Ankle.Medial			L.ASIS			L.GTR			L.Heel.Bottom			L.Heel.Lateral			L.Heel.Top			L.HF			L.Iliac.Crest			L.Knee			L.Knee.Medial			L.MT1			L.MT2			L.MT5			L.PSIS			L.Shank.Bottom.Lateral			L.Shank.Bottom.Medial			L.Shank.Top.Lateral			L.Shank.Top.Medial			L.Thigh.Bottom.Lateral			L.Thigh.Bottom.Medial			L.Thigh.Top.Lateral			L.Thigh.Top.Medial			L.TT			R.Ankle			R.Ankle.Medial			R.ASIS			R.GTR			R.Heel.Bottom			R.Heel.Lateral			R.Heel.Top			R.HF			R.Iliac.Crest			R.Knee			R.Knee.Medial			R.MT1			R.MT2			R.MT5			R.PSIS			R.Shank.Bottom.Lateral			R.Shank.Bottom.Medial			R.Shank.Top.Lateral			R.Shank.Top.Medial			R.Thigh.Bottom.Lateral			R.Thigh.Bottom.Medial			R.Thigh.Top.Lateral			R.Thigh.Top.Medial			R.TT			
		X1	Y1	Z1	X2	Y2	Z2	X3	Y3	Z3	X4	Y4	Z4	X5	Y5	Z5	X6	Y6	Z6	X7	Y7	Z7	X8	Y8	Z8	X9	Y9	Z9	X10	Y10	Z10	X11	Y11	Z11	X12	Y12	Z12	X13	Y13	Z13	X14	Y14	Z14	X15	Y15	Z15	X16	Y16	Z16	X17	Y17	Z17	X18	Y18	Z18	X19	Y19	Z19	X20	Y20	Z20	X21	Y21	Z21	X22	Y22	Z22	X23	Y23	Z23	X24	Y24	Z24	X25	Y25	Z25	X26	Y26	Z26	X27	Y27	Z27	X28	Y28	Z28	X29	Y29	Z29	X30	Y30	Z30	X31	Y31	Z31	X32	Y32	Z32	X33	Y33	Z33	X34	Y34	Z34	X35	Y35	Z35	X36	Y36	Z36	X37	Y37	Z37	X38	Y38	Z38	X39	Y39	Z39	X40	Y40	Z40	X41	Y41	Z41	X42	Y42	Z42	X43	Y43	Z43	X44	Y44	Z44	X45	Y45	Z45	X46	Y46	Z46	X47	Y47	Z47	X48	Y48	Z48	

113	0.7466666666666667	705.062744140625	110.435791015625	1037.6123046875	734.6746215820313	116.6227035522461	1116.09619140625	836.857421875	1045.016357421875	1099.102661132813	760.525634765625	937.3844604492188	1040.887329101563	638.8233642578125	39.24567031860352	1085.911987304688	661.9760131835938	61.95414352416992	1042.452392578125	647.2235107421875	87.2681884765625	1085.581420898438	759.3072509765625	482.0197143554688	1033.858032226563	771.0940551757813	1090.892456054688	1072.746215820313	757.2234497070313	540.2645874023438	1045.051147460938	762.2373657226563	523.5641479492188	1155.39990234375	857.3370971679688	62.04531478881836	1118.162109375	864.4812622070313	68.9390869140625	1074.665405273438	823.5680541992188	48.76834869384766	1011.365112304688	676.518798828125	1070.373291015625	1179.8876953125	713.4938354492188	186.3927612304688	1030.594848632813	675.1229248046875	189.87158203125	1070.30712890625	711.2825927734375	266.6178588867188	1022.486022949219	675.168701171875	270.8512268066406	1062.341918945313	759.3277587890625	714.71337890625	1024.904541015625	701.34765625	710.1189575195313	1069.215209960938	749.2532958984375	824.0540771484375	1024.828735351563	696.7551879882813	819.3496704101563	1070.887451171875	810.17578125	448.4982604980469	1079.401489257813	703.0762939453125	106.4082183837891	1409.608642578125	728.9578247070313	119.8124008178711	1329.887451171875	849.244140625	1033.704956054688	1342.655883789063	779.2095947265625	938.7501831054688	1392.350219726563	633.704833984375	40.27484512329102	1367.89404296875	660.9682006835938	57.73732376098633	1411.39111328125	641.0176391601563	82.85334014892578	1367.353515625	741.4904174804688	482.6667785644531	1402.467529296875	794.4002685546875	1084.85546875	1371.077758789063	742.845947265625	541.0220947265625	1393.235595703125	756.1768798828125	525.8024291992188	1281.511352539063	845.5689086914063	59.99709701538086	1329.501586914063	860.8386840820313	74.57299041748047	1376.434814453125	825.3837890625	50.87840270996094	1439.609375	683.474365234375	1070.755493164063	1274.263305664063	710.2459716796875	202.9082946777344	1416.19580078125	669.3790283203125	208.2021179199219	1385.407104492188	713.7333984375	287.5768432617188	1423.668579101563	669.3213500976563	288.8000793457031	1393.559326171875	730.4974975585938	677.0911865234375	1398.614013671875	684.4100341796875	675.071533203125	1344.030517578125	725.58837890625	787.7107543945313	1396.80517578125	683.1734008789063	785.0308837890625	1343.097290039063	797.55615234375	452.3861999511719	1351.190185546875	
114	0.7533333333333334	705.0562133789063	110.432731628418	1037.59814453125	734.6599731445313	116.6374206542969	1116.106323242188	836.8867797851563	1045.029174804688	1099.103393554688	760.5438232421875	937.381103515625	1040.900756835938	638.8170166015625	39.24731063842773	1085.923583984375	661.9705810546875	61.95100402832031	1042.451538085938	647.2266845703125	87.27505493164063	1085.575927734375	759.3109130859375	482.0152587890625	1033.864135742188	771.1192626953125	1090.894897460938	1072.735595703125	757.1968383789063	540.2757568359375	1044.840942382813	762.24755859375	523.55029296875	1155.392822265625	857.3388061523438	62.04042053222656	1118.168334960938	864.4876098632813	68.93539428710938	1074.665161132813	823.5693359375	48.76267242431641	1011.375366210938	676.5296630859375	1070.38134765625	1179.89208984375	713.496826171875	186.3893127441406	1030.604125976563	675.1231689453125	189.8665466308594	1070.31005859375	711.29052734375	266.6180114746094	1022.497131347656	675.1669311523438	270.8623657226563	1062.348510742188	759.3255004882813	714.7042846679688	1024.921142578125	701.3641357421875	710.1220092773438	1069.231079101563	749.231201171875	824.130126953125	1024.881225585938	696.765625	819.3508911132813	1070.894165039063	810.1820678710938	448.5242919921875	1079.416137695313	703.075927734375	106.4098510742188	1409.616577148438	728.9454345703125	119.816650390625	1329.885498046875	849.2548217773438	1033.7177734375	1342.676879882813	779.2150268554688	938.7546997070313	1392.356567382813	633.6974487304688	40.27558135986328	1367.8837890625	660.9754028320313	57.73162841796875	1411.385009765625	641.0225830078125	82.85679626464844	1367.349243164063	741.5028686523438	482.674560546875	1402.47412109375	794.3973388671875	1084.847045898438	1371.090698242188	742.8596801757813	541.0252685546875	1393.2412109375	756.1714477539063	525.8173217773438	1281.49609375	845.5716552734375	59.9975471496582	1329.500244140625	860.8305053710938	74.57304382324219	1376.437255859375	825.3809204101563	50.87447357177734	1439.6162109375	683.4766235351563	1070.762329101563	1274.280639648438	710.2574462890625	202.915771484375	1416.197387695313	669.3807983398438	208.2068786621094	1385.409912109375	713.7429809570313	287.5769958496094	1423.660278320313	669.3311157226563	288.7972717285156	1393.5556640625	730.5123291015625	677.0866088867188	1398.607666015625	684.4229736328125	675.0751953125	1344.036743164063	725.609619140625	787.7125854492188	1396.816528320313	683.1864013671875	785.034423828125	1343.1015625	797.5733642578125	452.4046020507813	1351.194580078125	
115	0.76	705.06494140625	110.4395904541016	1037.60986328125	734.6589965820313	116.6433334350586	1116.10107421875	836.9144897460938	1045.02734375	1099.107666015625	760.5656127929688	937.3819580078125	1040.890625	638.8196411132813	39.24057769775391	1085.917114257813	661.9757690429688	61.95898818969727	1042.447021484375	647.2311401367188	87.27024078369141	1085.574951171875	759.33935546875	482.0187072753906	1033.880859375	771.14501953125	1090.908203125	1072.748168945313	757.2078857421875	540.2787475585938	1044.84912109375	762.271484375	523.5626220703125	1155.405029296875	857.3333740234375	62.05137252807617	1118.17138671875	864.480224609375	68.93603515625	1074.661743164063	823.5653076171875	48.7634162902832	1011.376220703125	676.5459594726563	1070.373168945313	1179.889282226563	713.5032348632813	186.3931121826172	1030.6005859375	675.1306762695313	189.8729858398438	1070.301391601563	711.2958374023438	266.6202697753906	1022.488159179688	675.18017578125	270.8558349609375	1062.345336914063	759.323486328125	714.7135009765625	1024.9169921875	701.3682250976563	710.1242065429688	1069.265380859375	749.2522583007813	824.125244140625	1024.8837890625	696.7808227539063	819.3560791015625	1070.912109375	810.1875610351563	448.4999389648438	1079.431762695313	703.0794067382813	106.4158096313477	1409.61328125	728.9654541015625	119.8241806030273	1329.873657226563	849.2647094726563	1033.728271484375	1342.690063476563	779.2200927734375	938.7564086914063	1392.363403320313	633.7017211914063	40.28068161010742	1367.884765625	660.9728393554688	57.73444366455078	1411.378173828125	641.0244140625	82.855712890625	1367.348266601563	741.5167846679688	482.6759338378906	1402.4794921875	794.4050903320313	1084.85302734375	1371.09033203125	742.8662719726563	541.01416015625	1393.247680664063	756.1926879882813	525.8126220703125	1281.496826171875	845.5684204101563	59.99284744262695	1329.50341796875	860.8370971679688	74.57946014404297	1376.437866210938	825.3756103515625	50.87301635742188	1439.618774414063	683.4972534179688	1070.762939453125	1274.266357421875	710.2559814453125	202.9197692871094	1416.19091796875	669.38623046875	208.2053527832031	1385.4052734375	713.74755859375	287.5816345214844	1423.665283203125	669.3339233398438	288.8011474609375	1393.5576171875	730.5337524414063	677.0847778320313	1398.607421875	684.4434814453125	675.0728149414063	1344.022705078125	725.617431640625	787.7067260742188	1396.818481445313	683.19775390625	785.03515625	1343.0986328125	797.5765380859375	452.3973999023438	1351.19384765625	
116	0.7666666666666667	705.0711059570313	110.4364242553711	1037.613037109375	734.66650390625	116.6368255615234	1116.111694335938	836.9339599609375	1045.027099609375	1099.119140625	760.590576171875	937.3824462890625	1040.896118164063	638.8258666992188	39.23713302612305	1085.915405273438	661.9907836914063	61.95857238769531	1042.455200195313	647.2219848632813	87.27852630615234	1085.578369140625	759.3350830078125	482.0230102539063	1033.875122070313	771.1790161132813	1090.90380859375	1072.760986328125	757.2171020507813	540.26904296875	1044.863647460938	762.2792358398438	523.565185546875	1155.4072265625	857.3379516601563	62.04811096191406	1118.176147460938	864.47998046875	68.93977355957031	1074.664428710938	823.5706787109375	48.76545333862305	1011.3701171875	676.561279296875	1070.379272460938	1179.877685546875	713.5062866210938	186.3979034423828	1030.601440429688	675.1272583007813	189.8778533935547	1070.294555664063	711.300048828125	266.6239624023438	1022.48974609375	675.1809692382813	270.8614807128906	1062.344970703125	759.3314208984375	714.713134765625	1024.933959960938	701.378173828125	710.1333618164063	1069.262939453125	749.2852172851563	824.0496826171875	1024.8603515625	696.7901000976563	819.3595581054688	1070.924560546875	810.1913452148438	448.507080078125	1079.449096679688	703.078125	106.4197082519531	1409.627807617188	728.9720458984375	119.8151626586914	1329.8876953125	849.280517578125	1033.721923828125	1342.694458007813	779.23681640625	938.7630615234375	1392.373046875	633.7075805664063	40.2870979309082	1367.882446289063	660.9705200195313	57.74135208129883	1411.39501953125	641.026123046875	82.85675811767578	1367.349243164063	741.5296630859375	482.6711730957031	1402.476318359375	794.4061889648438	1084.854858398438	1371.09521484375	742.8837890625	541.0302734375	1393.242309570313	756.2149047851563	525.8189697265625	1281.503784179688	845.5709228515625	59.98843383789063	1329.499633789063	860.8458251953125	74.57521820068359	1376.441772460938	825.3814086914063	50.88155364990234	1439.608642578125	683.5198974609375	1070.755493164063	1274.255249023438	710.2611083984375	202.9197082519531	1416.190307617188	669.3914184570313	208.2147979736328	1385.40869140625	713.7567749023438	287.582275390625	1423.661499023438	669.338134765625	288.8093872070313	1393.555297851563	730.5433959960938	677.0819091796875	1398.60107421875	684.4605712890625	675.0758056640625	1344.015014648438	725.6295166015625	787.7101440429688	1396.826538085938	683.2162475585938	785.0349731445313	1343.094604492188	797.5928344726563	452.3981018066406	1351.197631835938	
